<svg width="30" height="30" viewBox="0 0 30 30" fill="none" xmlns="http://www.w3.org/2000/svg">
<path d="M24.5738 11.717L15.8238 4.0608C15.5958 3.86108 15.3031 3.75098 15 3.75098C14.6969 3.75098 14.4042 3.86108 14.1763 4.0608L5.42625 11.717C5.29221 11.8345 5.18483 11.9792 5.11132 12.1416C5.0378 12.3039 4.99985 12.4801 5 12.6583V23.7483C5 24.0798 5.1317 24.3978 5.36612 24.6322C5.60054 24.8666 5.91848 24.9983 6.25 24.9983H11.25C11.5815 24.9983 11.8995 24.8666 12.1339 24.6322C12.3683 24.3978 12.5 24.0798 12.5 23.7483V18.7483C12.5 18.4168 12.6317 18.0988 12.8661 17.8644C13.1005 17.63 13.4185 17.4983 13.75 17.4983H16.25C16.5815 17.4983 16.8995 17.63 17.1339 17.8644C17.3683 18.0988 17.5 18.4168 17.5 18.7483V23.7483C17.5 24.0798 17.6317 24.3978 17.8661 24.6322C18.1005 24.8666 18.4185 24.9983 18.75 24.9983H23.75C24.0815 24.9983 24.3995 24.8666 24.6339 24.6322C24.8683 24.3978 25 24.0798 25 23.7483V12.6583C25.0002 12.4801 24.9622 12.3039 24.8887 12.1416C24.8152 11.9792 24.7078 11.8345 24.5738 11.717Z" stroke="#696671" stroke-width="2.5" stroke-linecap="round" stroke-linejoin="round"/>
</svg>
