<svg width="35" height="35" viewBox="0 0 35 35" fill="none" xmlns="http://www.w3.org/2000/svg">
<path d="M12.758 29.7603C12.758 30.5396 13.3956 31.1772 14.1749 31.1772H19.8426C20.6219 31.1772 21.2595 30.5396 21.2595 29.7603V28.3433H12.758V29.7603ZM17.0087 2.83887C11.5394 2.83887 7.09033 7.28798 7.09033 12.7573C7.09033 16.1295 8.77646 19.0909 11.3411 20.8904V24.0926C11.3411 24.8719 11.9787 25.5095 12.758 25.5095H21.2595C22.0388 25.5095 22.6764 24.8719 22.6764 24.0926V20.8904C25.241 19.0909 26.9271 16.1295 26.9271 12.7573C26.9271 7.28798 22.478 2.83887 17.0087 2.83887ZM21.0469 18.5666L19.8426 19.4168V22.6757H14.1749V19.4168L12.9705 18.5666C12.0318 17.9158 11.2645 17.0476 10.734 16.036C10.2035 15.0244 9.92568 13.8995 9.92416 12.7573C9.92416 8.84659 13.0981 5.6727 17.0087 5.6727C20.9194 5.6727 24.0933 8.84659 24.0933 12.7573C24.0933 15.0668 22.9598 17.2347 21.0469 18.5666Z" fill="#F5F5F5"/>
</svg>
