<svg width="60" height="61" viewBox="0 0 60 61" fill="none" xmlns="http://www.w3.org/2000/svg">
<path d="M30 0.194336C24.0666 0.194336 18.2664 1.9538 13.3329 5.25025C8.39943 8.54669 4.55426 13.232 2.28363 18.7138C0.0129984 24.1956 -0.581101 30.2276 0.576455 36.047C1.73401 41.8665 4.59123 47.212 8.78681 51.4075C12.9824 55.6031 18.3279 58.4603 24.1473 59.6179C29.9667 60.7754 35.9987 60.1813 41.4805 57.9107C46.9623 55.6401 51.6476 51.7949 54.9441 46.8614C58.2405 41.928 60 36.1278 60 30.1943C59.9845 22.2426 56.8189 14.6209 51.1961 8.9982C45.5734 3.37545 37.9518 0.209787 30 0.194336ZM39.6339 31.8959L28.0954 42.2805C27.6675 42.6654 27.1139 42.8809 26.5385 42.8866C26.218 42.8879 25.9009 42.8217 25.6078 42.6924C25.3146 42.563 25.052 42.3734 24.8369 42.1359C24.6322 41.9123 24.4735 41.6505 24.3699 41.3656C24.2664 41.0806 24.22 40.778 24.2334 40.4751C24.2468 40.1722 24.3198 39.875 24.4482 39.6003C24.5766 39.3256 24.7578 39.0789 24.9815 38.8743L34.6154 30.1943L24.9815 21.5113C24.5541 21.0925 24.3061 20.524 24.2897 19.9258C24.2734 19.3277 24.4901 18.7465 24.894 18.305C25.298 17.8636 25.8576 17.5963 26.4549 17.5595C27.0522 17.5228 27.6404 17.7195 28.0954 18.1082L39.6339 28.4928C39.8698 28.709 40.0583 28.9719 40.1872 29.2648C40.3161 29.5578 40.3826 29.8743 40.3826 30.1943C40.3826 30.5144 40.3161 30.8309 40.1872 31.1238C40.0583 31.4168 39.8698 31.6797 39.6339 31.8959Z" fill="url(#paint0_linear_970_2458)"/>
<defs>
<linearGradient id="paint0_linear_970_2458" x1="30" y1="0.194336" x2="30" y2="60.1943" gradientUnits="userSpaceOnUse">
<stop stop-color="#06286E"/>
<stop offset="1" stop-color="#164EC0"/>
</linearGradient>
</defs>
</svg>
