<svg width="60" height="61" viewBox="0 0 60 61" fill="none" xmlns="http://www.w3.org/2000/svg">
<path d="M30 0.194336C35.9334 0.194336 41.7336 1.9538 46.6671 5.25025C51.6006 8.54669 55.4457 13.232 57.7164 18.7138C59.987 24.1956 60.5811 30.2276 59.4235 36.047C58.266 41.8665 55.4088 47.212 51.2132 51.4075C47.0176 55.6031 41.6721 58.4603 35.8527 59.6179C30.0333 60.7754 24.0013 60.1813 18.5195 57.9107C13.0377 55.6401 8.35235 51.7949 5.05591 46.8614C1.75947 41.928 0 36.1278 0 30.1943C0.0154533 22.2426 3.18112 14.6209 8.80386 8.9982C14.4266 3.37545 22.0482 0.209787 30 0.194336ZM20.3661 31.8959L31.9046 42.2805C32.3325 42.6654 32.8861 42.8809 33.4615 42.8866C33.782 42.8879 34.0991 42.8217 34.3922 42.6924C34.6854 42.563 34.948 42.3734 35.1631 42.1359C35.3678 41.9123 35.5265 41.6505 35.6301 41.3656C35.7336 41.0806 35.78 40.778 35.7666 40.4751C35.7532 40.1722 35.6802 39.875 35.5518 39.6003C35.4234 39.3256 35.2422 39.0789 35.0185 38.8743L25.3846 30.1943L35.0185 21.5113C35.4459 21.0925 35.6939 20.524 35.7103 19.9258C35.7266 19.3277 35.5099 18.7465 35.106 18.305C34.702 17.8636 34.1424 17.5963 33.5451 17.5595C32.9478 17.5228 32.3596 17.7195 31.9046 18.1082L20.3661 28.4928C20.1302 28.709 19.9417 28.9719 19.8128 29.2648C19.6839 29.5578 19.6174 29.8743 19.6174 30.1943C19.6174 30.5144 19.6839 30.8309 19.8128 31.1238C19.9417 31.4168 20.1302 31.6797 20.3661 31.8959Z" fill="url(#paint0_linear_970_2456)"/>
<defs>
<linearGradient id="paint0_linear_970_2456" x1="30" y1="0.194336" x2="30" y2="60.1943" gradientUnits="userSpaceOnUse">
<stop stop-color="#06286E"/>
<stop offset="1" stop-color="#164EC0"/>
</linearGradient>
</defs>
</svg>
