<svg width="30" height="31" viewBox="0 0 30 31" fill="none" xmlns="http://www.w3.org/2000/svg">
<path d="M25.591 4.59358C24.2024 3.19554 22.5509 2.08619 20.7315 1.32947C18.9122 0.572753 16.9611 0.183643 14.9906 0.184572C6.69794 0.184572 0 6.90127 0 15.194C0 23.4866 6.69794 30.2033 14.9906 30.2033C21.9887 30.2033 27.8236 25.4191 29.4934 18.9463H25.591C24.8181 21.1405 23.3834 23.0408 21.4847 24.385C19.586 25.7292 17.317 26.4511 14.9906 26.451C8.78049 26.451 3.73358 21.4041 3.73358 15.194C3.73358 8.98382 8.78049 3.93692 14.9906 3.93692C18.1051 3.93692 20.8818 5.23148 22.9081 7.2765L16.8668 13.3178H30V0.184572L25.591 4.59358Z" fill="url(#paint0_linear_970_2454)"/>
<defs>
<linearGradient id="paint0_linear_970_2454" x1="15" y1="0.18457" x2="15" y2="30.2033" gradientUnits="userSpaceOnUse">
<stop stop-color="#06286E"/>
<stop offset="1" stop-color="#164EC0"/>
</linearGradient>
</defs>
</svg>
