<svg width="35" height="35" viewBox="0 0 35 35" fill="none" xmlns="http://www.w3.org/2000/svg">
<path fill-rule="evenodd" clip-rule="evenodd" d="M20.8248 7.50185V4.58301C26.5067 5.8724 30.7432 10.945 30.7432 17.0094C30.7432 23.0738 26.5067 28.1463 20.8248 29.4357V26.5169C24.9197 25.2983 27.9094 21.501 27.9094 17.0094C27.9094 12.5177 24.9197 8.7204 20.8248 7.50185ZM5.23877 12.7586V21.2601H10.9064L17.991 28.3447V5.67403L10.9064 12.7586H5.23877ZM24.3671 17.0094C24.3668 15.8222 24.0351 14.6586 23.4092 13.6498C22.7834 12.6409 21.8883 11.8268 20.8248 11.2992V22.7054C22.9219 21.671 24.3671 19.5173 24.3671 17.0094Z" fill="#F5F5F5"/>
</svg>
